# xmcd
#
# Track frame offsets: 
#        182
#        38855
#        77697
#        114225
#        142542
#        175187
#        211217
#        249042
#        283020
#        306135
#        324635
#
# Disc length: 4642 seconds
#
# Revision: 18
# Processed by: cddbd v1.5.2PL0 Copyright (c) Steve Scherf et al.
# Submitted via: ExactAudioCopy v0.99pb4
#
DISCID=8612200b
DTITLE=Herbie Hancock - The New Standard
DYEAR=1996
DGENRE=Jazz
TTITLE0=New York Minute
TTITLE1=Mercy Street
TTITLE2=Norwegian Wood
TTITLE3=When Can I See You
TTITLE4=You've Got It Bad Girl
TTITLE5=Love Is Stronger Than Pride
TTITLE6=Scarborough Fair
TTITLE7=Thieves In The Temple
TTITLE8=All Apologies
TTITLE9=Manhattan
TTITLE10=Your Gold Teeth II
EXTD=YEAR: 1996
EXTT0=
EXTT1=
EXTT2=
EXTT3=
EXTT4=
EXTT5=
EXTT6=
EXTT7=
EXTT8=
EXTT9=
EXTT10=
PLAYORDER=
